<svg width="34" height="35" viewBox="0 0 34 35" fill="none" xmlns="http://www.w3.org/2000/svg">
<path d="M9.79168 15.9584L15.9583 2.08337C17.185 2.08337 18.3614 2.57065 19.2287 3.43801C20.0961 4.30536 20.5833 5.48175 20.5833 6.70837V12.875H29.3092C29.7561 12.87 30.1988 12.9622 30.6066 13.1452C31.0144 13.3282 31.3775 13.5977 31.6708 13.935C31.9641 14.2722 32.1805 14.6693 32.3052 15.0985C32.4298 15.5278 32.4596 15.979 32.3925 16.4209L30.265 30.2959C30.1535 31.0311 29.7801 31.7013 29.2134 32.1829C28.6468 32.6645 27.9253 32.9251 27.1817 32.9167H9.79168M9.79168 15.9584V32.9167M9.79168 15.9584H5.16668C4.34893 15.9584 3.56467 16.2832 2.98643 16.8615C2.40819 17.4397 2.08334 18.224 2.08334 19.0417V29.8334C2.08334 30.6511 2.40819 31.4354 2.98643 32.0136C3.56467 32.5919 4.34893 32.9167 5.16668 32.9167H9.79168" stroke="#F4A261" stroke-width="2.3" stroke-linecap="round" stroke-linejoin="round"/>
</svg>


