<svg width="35" height="35" viewBox="0 0 35 35" fill="none" xmlns="http://www.w3.org/2000/svg">
<path d="M35 17.2759C35 26.6076 27.165 34.1724 17.5 34.1724C7.83502 34.1724 0 26.6076 0 17.2759C0 7.94418 7.83502 0.379333 17.5 0.379333C27.165 0.379333 35 7.94418 35 17.2759Z" fill="none"/>
<path d="M18.7071 9.32741C18.3166 8.93688 17.6834 8.93688 17.2929 9.32741L10.9289 15.6914C10.5384 16.0819 10.5384 16.7151 10.9289 17.1056C11.3195 17.4961 11.9526 17.4961 12.3431 17.1056L18 11.4487L23.6569 17.1056C24.0474 17.4961 24.6805 17.4961 25.0711 17.1056C25.4616 16.7151 25.4616 16.0819 25.0711 15.6914L18.7071 9.32741ZM19 25.4828L19 10.0345H17L17 25.4828H19Z" fill="white"/>
</svg>
