<svg width="45" height="45" viewBox="0 0 90 89" fill="none" xmlns="http://www.w3.org/2000/svg">
<path d="M41.4585 0.131991C30.4322 1.28056 21.6457 5.30057 14.1034 12.6514C5.69966 20.8254 1.10538 31.1434 0.64595 42.8971C0.0716639 57.752 7.09709 71.8794 19.5017 80.7426C24.3257 84.1883 30.3748 86.7726 36.3857 87.9594C55.3754 91.7114 74.4034 82.8291 83.8982 65.7729C86.0422 61.9443 87.6502 57.484 88.5308 53.0429C91.9382 35.7951 84.9894 18.49 70.4982 8.11456C65.1 4.2477 58.3808 1.54856 51.5085 0.495705C49.5751 0.208562 43.0665 -0.0402951 41.4585 0.131991ZM48.8477 4.80285C62.5922 6.20028 74.5948 14.5274 80.7014 26.9129C86.1571 37.9583 86.1571 50.8989 80.7014 61.9443C78.5957 66.2323 76.1645 69.5249 72.6231 72.9514C69.2922 76.2057 66.5357 78.1391 62.5157 80.13C49.1157 86.7343 33.074 85.2411 21.0905 76.244C19.272 74.8849 15.8645 71.5923 14.2565 69.678C12.4571 67.5149 10.6768 64.7391 9.29852 61.9443C0.435378 44.0074 6.35052 22.376 23.1388 11.1966C30.5088 6.27685 40.0228 3.92228 48.8477 4.80285Z" fill="#F4A261"/>
<path d="M18.4297 25.6111C17.8171 25.726 17.5109 26.5108 17.128 29.1334C16.7069 32.1005 16.8409 38.1114 17.4151 40.868C18.4489 45.9025 20.5737 50.3628 23.7323 54.134C26.776 57.7711 31.9254 59.8003 36.5389 59.1685C39.1997 58.8048 41.3246 57.9625 43.4303 56.412L44.6363 55.5314L45.0191 56.4311C46.1486 59.0154 46.7229 61.4274 46.7229 63.5905C46.7229 64.6625 46.7994 64.988 47.1057 65.2943C47.9671 66.1557 48.9051 65.524 49.1157 63.9351C49.288 62.7483 49.8623 60.9297 50.3983 59.8385C50.9343 58.8048 52.2551 56.8714 52.4466 56.8714C52.5231 56.8714 52.8294 57.1394 53.1549 57.4648C54.0546 58.4411 55.8923 59.5323 57.3089 59.9725C59.7783 60.7191 62.7646 60.2023 65.5786 58.556C67.3589 57.5031 70.4791 54.3637 71.6851 52.4111C73.5229 49.4631 75.0734 44.9645 75.3606 41.7485C75.552 39.796 75.4371 39.5471 74.1354 39.0685C71.5703 38.0923 69.8283 37.8434 65.8657 37.8434C62.6497 37.8434 61.9223 37.9008 60.6589 38.2645C54.6097 39.93 51.1831 42.8205 50.0729 47.2043C49.5369 49.2717 49.824 52.2005 50.7237 53.9617L51.0874 54.67L50.226 55.8185C49.7474 56.4503 49.1157 57.3883 48.8286 57.886L48.2926 58.824L47.8906 57.5988C47.6609 56.948 47.1823 55.7994 46.8186 55.072L46.1677 53.7703L46.742 52.9088C48.35 50.5925 49.0966 48.0657 49.0966 44.9071C49.1157 42.1505 48.8094 40.868 47.5651 38.3411C45.9571 35.0677 42.0903 31.5454 37.5343 29.21C33.9163 27.3723 29.5709 26.128 25.1106 25.6685C23.1771 25.4771 19.3103 25.4388 18.4297 25.6111ZM25.0531 27.9848C32.27 28.7697 38.1086 31.2774 42.4731 35.508C44.598 37.5754 45.4786 38.8388 46.206 40.9445C47.3737 44.3711 46.9526 48.4103 45.0766 51.2817C44.7894 51.7028 44.7894 51.7028 43.8706 50.5925C42.0329 48.3911 39.6017 46.4385 36.4814 44.6391C34.6437 43.5863 34.1269 43.4714 33.6483 43.9883C32.9017 44.8305 33.2271 45.5197 34.7203 46.2854C37.6109 47.7977 40.8077 50.3437 42.5689 52.5643L43.3154 53.5214L42.4923 54.2488C41.5351 55.072 39.0083 56.3545 37.7257 56.6417C33.5334 57.618 29.188 56.412 26.2591 53.464C21.7989 48.9463 19.1763 41.806 19.1571 34.0914C19.1571 31.9091 19.4251 28.6165 19.6357 28.004C19.7506 27.7168 22.4497 27.6977 25.0531 27.9848ZM71.3214 40.6383L73.0443 41.0785L72.9869 41.94C72.8911 43.146 72.1446 45.96 71.4363 47.7785C70.1537 51.1285 67.4929 54.536 64.7554 56.3163C62.8411 57.5797 61.75 57.9243 59.6443 57.9243C58.132 57.9243 57.8066 57.8477 56.9069 57.3883C55.7774 56.7948 54.1886 55.4357 54.1886 55.0528C54.1886 54.536 57.3854 52.124 59.874 50.784C61.0034 50.1714 61.1757 49.9991 61.2331 49.4823C61.3097 48.774 60.8694 48.2571 60.1994 48.2571C59.338 48.2571 56.5049 49.9225 54.112 51.8368C52.638 53.0428 52.6189 53.0237 52.2551 51.32C51.7957 49.0994 52.37 46.5534 53.7674 44.7157C55.3754 42.5908 58.7829 40.9063 62.9943 40.1405C63.2623 40.1023 64.8511 40.0831 66.5357 40.1214C68.986 40.1597 69.9431 40.2745 71.3214 40.6383Z" fill="#F4A261"/>
</svg>
